<svg width="72" height="72" viewBox="0 0 72 72" fill="none" xmlns="http://www.w3.org/2000/svg">
<g filter="url(#filter0_d_118_180)">
<circle cx="31" cy="33" r="28" fill="white"/>
</g>
<g filter="url(#filter1_d_118_180)">
<circle cx="31" cy="33" r="25" fill="#525FE1"/>
</g>
<path d="M31 34.2083C31 30.7917 36.25 32.5 36.25 27.375C36.25 22.25 25.75 22.25 25.75 27.375M46.75 32.5C46.75 35.5409 45.8263 38.5135 44.0957 41.0419C42.365 43.5703 39.9052 45.541 37.0273 46.7046C34.1493 47.8683 30.9825 48.1728 27.9273 47.5796C24.8721 46.9863 22.0658 45.522 19.8631 43.3718C17.6604 41.2215 16.1604 38.482 15.5526 35.4995C14.9449 32.5171 15.2568 29.4257 16.4489 26.6162C17.641 23.8068 19.6597 21.4056 22.2498 19.7162C24.8399 18.0267 27.885 17.125 31 17.125C35.1772 17.125 39.1832 18.7449 42.1369 21.6282C45.0906 24.5116 46.75 28.4223 46.75 32.5Z" stroke="white" stroke-width="3" stroke-linecap="round" stroke-linejoin="round"/>
<path d="M31.0875 41.0417H30.9125" stroke="white" stroke-width="2.5" stroke-linecap="round" stroke-linejoin="round"/>
<defs>
<filter id="filter0_d_118_180" x="0" y="0" width="72" height="72" filterUnits="userSpaceOnUse" color-interpolation-filters="sRGB">
<feFlood flood-opacity="0" result="BackgroundImageFix"/>
<feColorMatrix in="SourceAlpha" type="matrix" values="0 0 0 0 0 0 0 0 0 0 0 0 0 0 0 0 0 0 127 0" result="hardAlpha"/>
<feMorphology radius="2" operator="erode" in="SourceAlpha" result="effect1_dropShadow_118_180"/>
<feOffset dx="5" dy="3"/>
<feGaussianBlur stdDeviation="5"/>
<feComposite in2="hardAlpha" operator="out"/>
<feColorMatrix type="matrix" values="0 0 0 0 0 0 0 0 0 0 0 0 0 0 0 0 0 0 0.25 0"/>
<feBlend mode="normal" in2="BackgroundImageFix" result="effect1_dropShadow_118_180"/>
<feBlend mode="normal" in="SourceGraphic" in2="effect1_dropShadow_118_180" result="shape"/>
</filter>
<filter id="filter1_d_118_180" x="3" y="3" width="66" height="66" filterUnits="userSpaceOnUse" color-interpolation-filters="sRGB">
<feFlood flood-opacity="0" result="BackgroundImageFix"/>
<feColorMatrix in="SourceAlpha" type="matrix" values="0 0 0 0 0 0 0 0 0 0 0 0 0 0 0 0 0 0 127 0" result="hardAlpha"/>
<feMorphology radius="2" operator="erode" in="SourceAlpha" result="effect1_dropShadow_118_180"/>
<feOffset dx="5" dy="3"/>
<feGaussianBlur stdDeviation="5"/>
<feComposite in2="hardAlpha" operator="out"/>
<feColorMatrix type="matrix" values="0 0 0 0 0 0 0 0 0 0 0 0 0 0 0 0 0 0 0.25 0"/>
<feBlend mode="normal" in2="BackgroundImageFix" result="effect1_dropShadow_118_180"/>
<feBlend mode="normal" in="SourceGraphic" in2="effect1_dropShadow_118_180" result="shape"/>
</filter>
</defs>
</svg>
